<!DOCTYPE svg PUBLIC "-//W3C//DTD SVG 1.1//EN" "http://www.w3.org/Graphics/SVG/1.1/DTD/svg11.dtd">
<!-- Uploaded to: SVG Repo, www.svgrepo.com, Transformed by: SVG Repo Mixer Tools -->
<svg width="256px" height="256px" viewBox="-52.05 0 684.34 684.34" id="Layer_1" version="1.1" xml:space="preserve" xmlns="http://www.w3.org/2000/svg" xmlns:xlink="http://www.w3.org/1999/xlink" fill="#78b286" stroke="#78b286">
<g id="SVGRepo_bgCarrier" stroke-width="0"/>
<g id="SVGRepo_tracerCarrier" stroke-linecap="round" stroke-linejoin="round"/>
<g id="SVGRepo_iconCarrier"> <style type="text/css"> .st0{clip-path:url(#SVGID_2_);} .st1{clip-path:url(#SVGID_4_);} .st2{clip-path:url(#SVGID_6_);} .st3{clip-path:url(#SVGID_8_);} .st4{clip-path:url(#SVGID_10_);} .st5{clip-path:url(#SVGID_12_);} .st6{clip-path:url(#SVGID_14_);} .st7{clip-path:url(#SVGID_16_);} .st8{clip-path:url(#SVGID_18_);} .st9{clip-path:url(#SVGID_20_);} .st10{clip-path:url(#SVGID_22_);} .st11{clip-path:url(#SVGID_24_);} .st12{clip-path:url(#SVGID_26_);} .st13{clip-path:url(#SVGID_28_);} .st14{clip-path:url(#SVGID_30_);} .st15{clip-path:url(#SVGID_32_);} .st16{clip-path:url(#SVGID_34_);} .st17{clip-path:url(#SVGID_36_);} .st18{clip-path:url(#SVGID_38_);} .st19{clip-path:url(#SVGID_40_);} </style> <g> <defs> <rect height="684.34" id="SVGID_5_" width="580.24" y="0"/> </defs> <clipPath id="SVGID_2_"> <use style="overflow:visible;" xlink:href="#SVGID_5_"/> </clipPath> <g class="st0"> <path d="M86.78,629.17c0.51,0.68,1.01,1.37,1.52,2.05c0.23-0.17,0.45-0.35,0.68-0.52c-3.38-15.55-12.34-27.28-19.53-40.52 c-15.16,16.95-30.2,33.77-45.24,50.58c-0.2-0.22-0.39-0.44-0.59-0.66c19.46-26.76,38.91-53.52,58.8-80.88 c-1.43-5.36-3.13-11.69-4.85-18.13c-10.79-1.35-19.74,2.95-27.28,11.83c-7.59,8.94-12.75,19.93-17.64,31.14 c-7.5,17.19-13.01,35.27-17.27,54.06c0.27-2.72,0.43-5.45,0.83-8.14c0.42-2.83,1.01-5.63,1.61-8.41 c4.67-21.6,11.04-42.37,21.13-61.21c2.53-4.72,5.83-8.83,8.84-13.42c0.07-0.21,0.05-0.16,0.05-0.16 c7.74-8.61,16.34-14.39,27.27-12.06c-1.17-6.57-2.69-13.02-3.35-19.6c-0.44-4.39,0.36-8.95,0.72-13.94c1.1-2.1,2.09-3.7,3.08-5.29 c4.26-3.54,8.47-3.9,12.55,0.7c5.36,6.04,10.14,12.87,14.92,19.61c6.3,8.88,9.48,19.61,11.93,30.77 c-0.07-8.29-1.39-16.19-4.8-24.01c-0.19-1.11-0.35-1.71-0.52-2.32c-4.98-15.62-5.73-32.32-8.32-48.55 c-3.67-23.04-6.67-46.24-10.14-69.33c-2.92-19.4-5.71-38.85-9.3-58.08c-2.15-11.51-5.73-22.63-8.7-34.05 c1.88,2.49,4.11,4.9,5.82,7.77c9.49,15.94,15.13,34.1,19.05,52.85c4.32,20.69,7.58,41.71,10.94,62.67 c2.2,13.67,3.76,27.5,5.86,41.24c0.52-26.24,1.03-52.48,1.55-78.98c-1.2,0.31-2.09,0.54-3.62,0.94c-0.85-1.84-2.13-3.62-2.56-5.67 c-2.31-10.93-4.72-21.85-6.53-32.92c-4-24.42-7.44-48.98-11.56-73.37c-2.14-12.68-5.39-25.05-10.68-36.48 c0.23-0.23,0.46-0.46,0.69-0.69c2.12,2.62,4.56,4.97,6.31,7.91c7.67,12.91,12.38,27.56,16.36,42.56 c5.44,20.46,8.76,41.43,9.7,62.92c0.03,0.72,0.12,1.44,0.23,2.15c0.09,0.58,0.27,1.14,0.65,2.72c2.42-7.81,1.43-15.07,2.11-21.86 c-3.87-3.84-5.31-16.14-2.67-21.67c0.89,0.17,1.84,0.35,2.72,0.51c0.78-17.84,1.55-35.63,2.34-53.65 c-7.51-2.8-13.86-7.52-16.32-17.43c-1.37-5.54-0.48-11.65,2.37-16.69c0.21,4.39-0.59,8.79,2.27,13.02 c0.74-6.29-0.82-12.35,2.26-18.26c0.7,4.96-0.06,9.8,3.07,13.52c0.65-11.77,2.01-23.25,6.1-34.87c0,6.7-0.26,12.62,0.07,18.48 c0.34,5.83-0.89,11.99,1.6,17.47c0.38,0.09,0.76,0.19,1.14,0.28c0.35-1.08,0.97-2.15,1-3.25c0.26-9.64,0.43-19.28,0.61-28.92 c0.03-1.32,0-2.65,0.22-4.02c4.08,11.37,5.45,23.35,5.14,36.08c3.13-1.7,2.73-4.88,2.95-7.53c0.23-2.8,0.05-5.65,0.05-9.44 c4.25,7,2.38,14.47,3.47,21.81c3.08-4.21,2.47-8.65,2.53-12.97c2.38,2.8,3.48,9.3,2.12,14.37c-2.81,10.46-9.32,15.75-18.38,18.14 c0,14.41,0,28.98,0,43.3c0.15-0.37,0.45-1.17,0.78-1.95c4.95-11.38,11.53-15.19,22-12.58c3.21,0.8,6.38,1.88,9.54,2.96 c4.89,1.69,8.17,5.84,10.82,10.8c6.81,12.71,10.47,26.86,12.71,41.61c4.71,30.94,6.7,62.17,6.7,93.6c0,10.02,0,20.05,0.16,30.06 c0.03,1.63,0.63,3.49,1.44,4.82c3.45,5.61,7.32,10.86,10.53,16.65c1.37,2.47,1.5,5.94,1.64,9.16c1.04,1.42,2.08,2.85,3.32,4.54 c0.33-2.73,0.62-5.23,1.04-8.75c-1.23-1.2-3.03-2.36-4.1-4.16c-1.08-1.82-1.81-4.23-1.95-6.45c-0.07-1.06,1.58-2.28,2.68-3.73 c1.26,2.1,2,3.33,3.16,5.27c0-1.78-0.03-2.88,0-3.98c0.75-21.48,1.51-42.95,2.28-64.43c0.84-23.53,1.75-47.05,2.49-70.59 c0.07-2.09-0.83-4.24-1.33-6.34c-1.55-6.57-3.31-13.07-4.65-19.7c-8.04-39.9-15.67-79.92-24.11-119.7 c-3.51-16.57-8.29-32.81-13.23-48.87c-2.53-8.23-6.68-15.74-10.35-24.15c2.49,2.34,4.96,4.29,7.06,6.71 c8.86,10.19,15.19,22.5,20.22,35.86c1.85,4.91,3.69,9.82,5.81,14.63c-7.62-43.14-11.07-87.62-27.92-128.24 c2.52,3.17,5.33,6.07,7.52,9.55c9.1,14.46,14.54,31.16,18.64,48.37c4.33,18.2,8.08,36.64,11.25,55.19 c2.23,13.05,3.04,26.46,4.53,39.7c0.35,3.08,0.87,6.14,1.56,9.2c0.26-8.3,0.4-16.62,0.79-24.91c0.93-19.4,1.37-38.88,3.15-58.17 c1.96-21.3,6.43-42.06,13.77-61.67c2.12-5.67,5.73-10.53,8.77-15.67c0.58-0.98,1.66-1.52,2.67-2.4 c-7.66,19.85-10,40.85-12.08,61.79c-2.29,23.11-3.85,46.33-5.5,69.52c-1.5,21.05-2.86,42.11-3.96,63.2 c-0.46,8.72-0.08,17.5,0.21,26.33c1.86-7.65,3.61-15.34,5.61-22.94c6.27-23.85,13.62-47.16,24.61-68.52 c3.4-6.61,7.1-13.14,14.1-16.02c-0.38,1.52-0.46,2.89-1.01,3.87c-6.7,11.91-10,25.53-13.01,39.14 c-7.66,34.68-14.9,69.49-22.33,104.23c-0.76,3.55-1.72,7.03-2.71,11.09c5.91,20.38,11.57,41.66,12.6,63.49 c1.65,0.58,3.55,0.57,3.98,1.52c1.05,2.33,1.43,5.11,2.15,7.99c0.1,0.02,1.35-0.22,2,0.43c0.71,0.71,1.21,2.23,1.2,3.39 c-0.02,2.76-0.4,5.51-0.64,8.35c1.09,2.41,2.22,4.91,3.44,7.61c1.73-7.71,0.2-15.28-0.17-22.81c-0.46-9.38-1.28-18.73-1.8-28.12 c3.85,14.26,4.58,29.14,5.94,44.04c3.15,1.59,3.38,4.62,2.94,8.32c-0.35,2.91-0.07,5.93-0.07,8.84c2.38,0.47,4.27,0.84,5.98,1.17 c0.76,3.97,0.76,3.97-4.54,10.23c0.64,2.4,1.29,4.82,1.94,7.21c1.03-0.49,2.21-1.06,4.24-2.03c0.49,2.04,1.68,4.3,1.17,5.41 c-1.02,2.22-2.98,3.8-4.99,5.01c-1.14,2.43-2.27,4.86-3.78,8.08c0,1.96,0,4.95,0,8.28c1.42-0.72,2.63-1.34,3.89-1.99 c-0.37-2.31-0.75-4.69-1.26-7.83c1.37,0.79,2.09,1.2,2.79,1.6c1.14-1,2.26-1.99,3.13-2.76c0.62-3.2,1.23-6.09,1.7-9.01 c0.24-1.5,0.21-3.07,0.32-4.6c0.15-2.08,0.41-4.15,0.44-6.23c0.03-1.9,0.4-4.39-0.42-5.61c-2.88-4.32-3.48-9.42-4.03-14.5 c-4.12-38.45-9.72-76.54-18.33-113.95c-1.84-7.98-3-16.18-4.44-24.3c-0.14-0.8-0.02-1.68-0.02-3.61c1.07,2.1,1.82,3.36,2.4,4.74 c6.75,16.04,10.69,33.29,14.88,50.43c5.53,22.63,9.29,45.73,11.89,69.08c1.11,10.01,1.26,20.18,1.73,30.9 c-0.12,8.92-0.12,17.2-0.12,25.28c1.97-0.72,3,1.06,2.82,3.65c-0.24,3.66-1.4,7.28-1.38,10.91c0.12,21.13,0.44,42.27,0.77,63.4 c0.08,4.83,0.47,9.65,0.75,15.01c2.35-6.15,2.89-93.74,0.79-102c-0.97,0-2.02,0-3.8,0c0-5.59,0-10.98,0-16.37 c0.44-0.25,0.89-0.5,1.61-0.9c0.28,3.9,0.58,7.94,0.87,11.97c0.15,0.03,0.29,0.06,0.44,0.09c0.16-0.84,0.46-1.68,0.46-2.52 c-0.05-19.32-0.13-38.64-0.23-57.96c-0.01-1.93-0.29-3.85-0.3-5.78c-0.24-24.41-0.3-48.82-0.73-73.22 c-0.31-17.13-1.11-34.24-1.72-51.36c-0.04-1.17-0.35-2.34-0.52-3.42c-7.94-2.28-11.51-8.23-9.98-16.42 c0.61,2.14,1.22,4.29,2.11,7.39c0.24-6.1,0.43-11.05,0.62-16.01c0.26,0.02,0.52,0.03,0.78,0.05c0.69,4.26,1.38,8.53,2.08,12.79 c0.41-0.07,0.82-0.15,1.24-0.22c0-7,0-14,0-21.01c0.12-0.07,0.23-0.15,0.35-0.22c1.53,6.18,3.06,12.36,4.59,18.54 c0.39-0.07,0.78-0.14,1.17-0.22c-0.25-3.41-0.5-6.83-0.74-10.24c0.26-0.13,0.52-0.26,0.78-0.38c1.28,3.96,2.56,7.93,3.84,11.89 c0.2,0,0.41,0,0.61,0.01c-0.13-2.74-0.26-5.48-0.37-7.84c5.16,4.83,3.31,14.01-4.81,21.48c0.97,5.37,1.96,10.79,2.98,16.4 c0.62-2.3,1-4.67,1.87-6.74c1.28-3.08,2.64-6.22,4.44-8.84c2.47-3.59,3.93-3.66,7.56-1.42c0-1.44,0.01-2.7,0-3.96 c-0.17-20.9-0.03-41.81-0.71-62.69c-0.19-5.72-2.51-11.5-4.48-16.93c-1.78-4.92-4.42-9.38-6.73-14.15 c-5.46,3.02-9.85,0.08-13.47-4.1c-3.99-4.62-4.79-10.6-2.57-17.01c0.48,3.33,0.96,6.62,1.44,9.91c0.42-0.04,0.83-0.08,1.25-0.12 c-0.41-6.22-1.21-12.49,1.37-18.96c0.65,5.73,1.23,10.87,1.82,16.06c2.87-0.32,2.23-2.53,2.13-4.35 c-0.35-6.69-0.73-13.38-1.09-20.07c0.32-0.08,0.63-0.16,0.95-0.24c1.76,8.22,3.53,16.44,5.29,24.66c1.72-4.45,0.93-8.8-0.1-13.86 c3.39,4.33,3.85,9.26,4.37,14.16c0.32,0,0.65-0.01,0.97-0.01c0.12-2.78,0.24-5.55,0.35-8.05c2.71,4.47,2.26,11.79-0.93,17.1 c3.54,6.64,6.96,13.05,10.38,19.47c0.2-0.02,0.39-0.03,0.59-0.05c-0.34-27.54-0.67-55.08-1.01-82.84 c-8.34-1.62-14.17-6.78-17.66-15.46c-2.35-5.85-1.41-11.62,0.86-17.41c0.55,4.18,1.07,8.18,1.6,12.18 c0.34-0.02,0.67-0.05,1.01-0.07c0.39-6.2-0.68-12.69,2.27-18.98c0.76,5.58-0.18,11.02,3.01,15.53c0.25-4.6,0.2-9.26,0.82-13.78 c0.6-4.39,1.89-8.65,2.88-12.96c0.3,0.06,0.6,0.12,0.89,0.19c0.45,8.78,0.91,17.56,1.36,26.3c3.21,0.75,3.15-1.47,3.15-3.56 c0.01-10.62,0-21.23,0.51-31.87c3.6,11.78,5.12,23.95,5.79,36.4c2.92-6.51,2.71-13.23,2.27-20.01c3.55,7.03,3.5,14.84,3.46,22.71 c2.67-2.05,3.26-6.86,1.95-14.89c7.86,12.48,2.45,29.46-12.52,35.22c4.7,26.8,3.01,54.14,3.57,81.72 c4.46-5.82,9.76-7.31,15.32-3.55c2.54,1.71,4.89,4.68,6.32,7.77c6.38,13.68,10.05,28.67,13.52,43.71 c5.67,24.58,9.1,49.71,12.51,74.84c0.06,0.41-0.16,0.88-0.29,1.54c0.36,0.11,0.86,0.27,1.61,0.51c-0.31,0.54-0.57,0.99-1.05,1.81 c0.96-0.34,1.65-0.59,2.03-0.73c0-17.34,0.23-34.36-0.05-51.37c-0.43-26.37,0.18-52.64,3.75-78.71 c4.73-34.56,12.98-67.82,26.03-99.14c3.37-8.09,7.92-15.53,12.39-22.87c2.05-3.37,5.19-5.78,7.83-8.63 c0.21,0.2,0.42,0.41,0.62,0.61c-0.14,0.75-0.12,1.63-0.44,2.24c-8.21,15.32-12.29,32.7-16.81,49.81 c-7.06,26.76-11.31,54.3-14.49,82.06c-2.72,23.76-5.19,47.56-7.67,71.36c-0.41,3.9-0.33,7.87,0.24,11.96 c1.44-4.38,2.88-8.76,4.32-13.14c9.54-29.2,22.62-55.91,38.95-80.28c7.37-10.99,15.23-21.46,24.62-30.03 c2.49-2.27,5.35-3.95,8.71-6.39c-37.87,63.79-60.58,134.28-74.42,209.1c4.01-1.5,7.46,0.5,9.47,5.35 c4.53,10.93,8.81,22,13.17,33.03c1.57,3.98,2.62,8.43,6.56,10.39c1.16-7.44,2.31-14.85,3.48-22.25 c3.78-23.86,9.54-47.06,15.77-70.12c10.39-38.43,22.91-75.76,38.99-111.27c8.76-19.35,18.47-37.98,30.76-54.4 c3.29-4.4,7.19-8.14,10.81-12.19c0.26,0.25,0.52,0.5,0.78,0.75c-0.07,0.62,0.01,1.37-0.24,1.84 c-12.95,23.92-23.23,49.54-31.21,76.33c-12.88,43.31-24.89,87-37.3,130.51c-3.84,13.46-7.79,26.88-11.68,40.32 c-0.09,0.31-0.11,0.64,0.13,1.11c2.42-6.11,4.66-12.33,7.29-18.3c12.75-28.99,27.82-56.01,47.74-78.57 c12.17-13.78,24.98-26.75,40.7-34.46c4.72-2.31,9.76-3.64,14.66-5.42c0.26,0.46,0.53,0.92,0.79,1.38 c-0.54,0.78-0.97,1.75-1.64,2.3c-10.11,8.33-19,18.37-27.57,28.85c-16.42,20.08-30.18,42.7-42.59,66.49 c-6.88,13.2-12.95,27.02-19.4,40.56c-0.74,1.55-1.52,3.06-1.68,4.39c1.54,13.98,3.08,27.96,4.57,41.41 c25.42-55.47,62.32-106.72,74.5-117.81c-1.04,1.45-2.04,2.93-3.12,4.33c-16.13,20.87-30.2,43.7-42.98,67.62 c-9.81,18.36-18.68,37.47-27.86,56.32c-0.75,1.55-0.85,3.7-0.89,5.58c-0.12,4.91-0.04,9.82-0.04,15.41 c1.67-2.93,3.03-5.49,4.51-7.93c16.56-27.17,35.73-50.99,60.37-67.58c17.01-11.45,35.11-18.68,54.72-19.6 c1.58-0.07,3.16-0.01,4.28-0.01c-7.52,1.57-15.53,2.76-23.36,4.96c-18.64,5.25-35.13,15.9-49.94,30.44 c-12.92,12.68-24.88,26.55-35.06,42.48c-5.48,8.56-10.56,17.52-15.44,26.6c-1.31,2.43-1.48,5.93-1.73,8.99 c-2.64,32.08-10.05,62.67-19.18,92.8c-3.13,10.34-5.23,21.14-7.75,31.74c-0.31,1.31-0.29,2.73-0.42,4.09 c4.79-7.4,9.71-14.48,14.06-22.05c1.48-2.57,1.54-6.35,2.19-9.59c3.01-15.04,5.58-30.24,9.19-45.06c1.46-6,4.81-11.56,8-16.67 c4.26-6.83,10.49-8.78,17.5-7.45c-5.6,0.92-10.05,4.46-13.54,9.62c-2.31,3.41-4.4,7.16-6.05,11.08 c-4.57,10.84-5.92,22.82-7.86,34.57c-0.84,5.1-1.63,10.2-2.6,16.28c16.1-19.68,32.98-36.23,54.95-44.52 c-2.73-5.4-5.19-10.74-8.03-15.77c-3.93-6.97-8.54-12.85-16.52-11.45c9.75-5.15,17.39,1.88,22.48,10.36 c2.83,4.71,4.89,10.11,7.39,15.38c11.18-2.52,22.58-2.55,33.92,1.81c12.45,4.79,23.5,12.63,33.25,22.84 c8.44,8.83,16.13,18.69,24.14,28.12c0.39,0.46,0.65,1.07,0.75,1.81c-5.48-6.22-10.85-12.6-16.47-18.64 C536,542.08,522,530.34,505,524.79c-10.21-3.34-20.49-3.47-31.16-1.05c5.44,21.25,8.52,42.94,9.89,65.03 c-4.1-21.37-7.86-42.85-15.02-64.11c-5.66,2.94-11.24,5.43-16.5,8.65c-13.92,8.53-24.87,21.6-35.84,34.69 c-3.76,4.49-4.86,9.71-5.66,15.7c-1.52,11.35-3.72,22.57-5.63,33.84c-0.12,0.68-0.17,1.38,0.02,2.15 c1.77-5.77,3.54-11.53,5.54-18.03c-1.12,8.11-2.13,15.42-3.15,22.72c0.28,0.07,0.56,0.14,0.84,0.22 c0.86-4.36,1.72-8.73,2.58-13.09c0.21,0.03,0.41,0.06,0.62,0.09c-0.46,5.56-0.92,11.11-1.38,16.67c0.16,0.05,0.32,0.11,0.48,0.16 c0.66-2.07,1.53-4.08,1.94-6.22c0.96-5.03,3.57-9.07,5.25-13.61c3.34-9.06,5.59-18.7,8.59-27.95c2.11-6.5,4.71-12.77,7.46-18.96 c-3.74,13.84-9.53,26.88-10.2,41.95c0.21-0.27,0.42-0.53,0.94-1.19c-0.51,4.36-0.97,8.3-1.43,12.25c0.12,0.03,0.24,0.06,0.36,0.09 c2.05-5.72,4.1-11.44,6.15-17.16c0.13,0.08,0.27,0.15,0.4,0.23c-2.33,9.98-4.66,19.95-6.99,29.93c0.34,0.13,0.68,0.27,1.02,0.4 c4.46-11.76,7.61-24.13,11.17-36.37c-2.08,16.58-4.16,33.15-6.23,49.73c0.33,0.09,0.66,0.17,1,0.26 c3.06-12.85,6.12-25.7,9.17-38.55c0.2,0.06,0.4,0.11,0.6,0.17c-1.3,7.69-2.6,15.38-3.91,23.06c0.19,0.07,0.39,0.14,0.58,0.21 c3.25-10.34,6.51-20.69,9.76-31.03c0.07,0.04,0.15,0.08,0.22,0.12c-3.46,17.92-6.92,35.83-10.38,53.75 c0.22,0.07,0.45,0.13,0.67,0.2c4.27-13.99,8.55-27.98,12.82-41.96c0.3,0.12,0.59,0.25,0.89,0.37c-0.97,3.71-1.94,7.42-2.9,11.13 c-2.23,8.58-4.72,17.08-6.6,25.78c-1.03,4.77-3.39,6.68-6.99,7.54c-20.58,4.92-41.35,8.17-62.24,10.24 c-40.89,4.07-81.86,5.17-122.86,3.92c-23.08-0.7-46.16-1.84-69.2-3.53c-15.24-1.12-30.47-3.03-45.6-5.54 c-15.87-2.64-31.6-6.47-47.4-9.7c-4.79-0.98-9.61-1.71-14.76-2.62c-1.9-9.15-3.72-17.96-5.55-26.76c0.23-0.1,0.46-0.19,0.69-0.29 c2.14,7.47,4.29,14.95,6.59,22.98c2.1-7.16-1.42-13.28-1.22-20.29c0.84,1.63,1.44,2.8,2.05,3.97c0.15-0.07,0.3-0.14,0.44-0.21 c-2.17-7.08-4.35-14.15-6.79-22.09c6.13,9.26,9.17,19.44,12.73,29.45c-0.37-6.38-0.75-12.76-1.11-18.99 c2.96,1.89,2.88,6.37,4.13,10.48c1.41,6.55,2.83,12.54,4.26,18.54c0.29-0.11,0.58-0.22,0.88-0.32 C88.31,637.61,87.55,633.39,86.78,629.17z M237.18,531.37c1.64,0.2,3.29,0.4,4.16,0.51c0.86-4.49,1.73-9.02,2.56-13.31 c-4.24,2.73-6.08,7.48-7.47,13.01c-2.8,6.83-2.51,9.04,1.94,14.28c0.36-2.7,0.72-5.32,1.13-8.35c-0.93-0.91-2.02-1.96-2.97-2.88 C236.64,533.29,236.72,532.36,237.18,531.37z M227.3,577c0.14,0.68,0.42,1.36,0.39,2.03c-0.45,8.29-0.94,16.57-1.42,24.85 c0.41,0.08,0.83,0.16,1.24,0.23c2.18-10.26,4.35-20.53,6.53-30.8c-2.17,0.18-3.79,0.31-5.05,0.41c-0.87,1.2-1.47,2.02-2.05,3.46 c-4.72,10.25-3.36,20.96-1.4,31.68c0.41-2.92,0.4-5.84,0.41-8.77c0.02-4.78-0.04-9.57,0.13-14.34 C226.18,582.69,226.62,579.63,227.3,577z M244.64,571.55c-1.32-5.65-2.65-11.31-3.97-16.96c-0.31,0.05-0.62,0.11-0.93,0.16 c-0.91,5.61-1.81,11.21-2.54,15.75c1.55,2.39,2.68,4.13,3.85,5.94c-1.84,1.91-3.03,3.13-4.15,4.3c0.22,2.6,0.42,4.98,0.63,7.56 c2.16-6.11,4.2-11.9,6.23-17.63c0.25,0.39,0.57,0.91,0.73,1.93c-1.01,3.62-2.05,7.23-3.04,10.86c-1.73,6.32-3.47,12.64-5.12,19 c-1.5,5.78-2.54,11.65-1.63,18.55c2.83-11.05,5.47-21.37,8.11-31.7c0.16,0.06,0.33,0.12,0.49,0.18c0,7.23,0,14.46,0,21.69 c0.38,0.02,0.77,0.05,1.15,0.07c0.59-8.95,1.43-17.88,1.67-26.85C246.22,580.34,245.13,576.24,244.64,571.55z M79.93,577.95 c-0.27-0.08-0.69-0.35-0.78-0.23c-2.98,3.83-5.93,7.69-9,11.71c6.15,8.82,12.53,17.97,18.93,27.14 c0.12-8.78-3.66-15.87-7.32-23.02c0.23-0.12,0.46-0.24,0.69-0.36c1.31,2,2.63,4,4.36,6.65c-0.38-1.48-0.53-2.15-0.72-2.8 c-1.76-5.95-3.52-11.9-4.87-17.71c2.59,6.07,5.21,12.12,7.75,18.22c2.88,6.93,5.68,13.9,8.51,20.85c0.27-0.05,0.53-0.11,0.8-0.16 c0.09-1.54,0.5-3.17,0.22-4.6c-1.09-5.58-2.36-11.11-3.63-16.63c-0.85-3.69-1.83-7.34-2.75-11.01c0.17-0.06,0.33-0.13,0.5-0.19 c1.34,3.47,2.69,6.93,4.03,10.4c0.27-0.13,0.53-0.26,0.8-0.38c-2.85-9.7-5.69-19.4-8.54-29.1c-0.42-0.12-0.85-0.24-1.27-0.36 c-2.35,3.1-4.73,6.17-7,9.34C80.26,576.23,80.39,577.25,79.93,577.95z M197,552.68c0.91,1.91,1.82,3.82,3.06,6.42 c0.1-8.79-2.74-13.89-7.78-16.55c-2.42-2.41-4.84-4.81-7.22-7.19c0.09-2.18,0.16-4.06,0.23-6c3.67-0.23,5.4,2.15,7.07,5.32 c2.11,4.02,4.74,7.64,7.15,11.43c0.4-0.19,0.8-0.38,1.2-0.57c-0.56-3.62-0.21-8.1-1.87-10.69c-2.97-4.6-7.06-8.2-10.85-11.96 c-3.2-3.18-3.76-5.64-1.71-10.15c5.15-0.47,5.32-0.26,6.83,7.54c2.94,3.52,5.17,6.2,7.71,9.24c-0.25-3.76-0.46-6.96-0.66-10.1 c-3.13-3.02-6.28-5.76-9.08-8.94c-1.08-1.23-1.36-3.48-2.37-6.29c2.77,0,4.39,0,6.1,0c-3.32-6.75-6.62-13.47-10.1-20.57 c0,11.85-0.06,23.29,0.01,34.73c0.14,21.86,0.65,43.73,0.42,65.58c-0.11,10.54,2.02,20.3,4.43,30.15c0.3-0.06,0.59-0.11,0.89-0.17 c-1.32-9.31-2.64-18.62-3.96-27.93c0.21-0.08,0.43-0.15,0.64-0.23c2.36,8.39,4.72,16.78,7.08,25.17c0.13-0.02,0.26-0.05,0.38-0.07 c-1.29-7.44-2.59-14.88-3.88-22.32c0.11-0.05,0.22-0.09,0.34-0.14c1.16,3.53,2.32,7.06,3.49,10.59c0.61-1.64,0.73-3.26,0.58-4.85 c-0.91-9.73-3.45-18.9-6.64-27.85c-0.83-2.34-1.43-4.8-2.13-7.2c0.36-0.18,0.72-0.37,1.09-0.55c4.88,12.57,9.76,25.14,14.64,37.71 c0.35-0.05,0.71-0.1,1.06-0.15c0.21-0.86,0.7-1.77,0.6-2.57c-0.98-8.21-1.84-16.45-3.19-24.58 C199.6,563.37,197.95,557.95,197,552.68z M121.37,498.86c2.29-15.88,4.19-31.85,6.95-47.61c4.89-27.86,12.49-54.62,24.61-79.21 c4.63-9.39,9.53-18.64,17.12-25.17c-0.14-0.91-0.25-1.85-0.43-2.77c-1.96-10.44-4.26-20.7-9.01-29.96 c-3.75-7.3-8.93-11.52-15.88-13.38c-5.18-1.39-9.3,0.01-12.68,4.62c-6.45,8.79-9.74,19.67-10.22,30.9 c-1.18,27.36-1.23,54.79-1.85,82.19c-0.6,26.67-1.39,53.34-2,80.01c-0.18,8.06-0.03,16.13-0.03,24.2c0.14,0,0.28,0,0.43-0.01 C119.34,514.94,120.28,507.21,121.37,498.86z M370.77,529.13c0.36-6.99,0.7-13.98,1.08-20.96c0.65-11.92,1.21-23.86,2.04-35.77 c1.16-16.71,2.51-33.41,3.81-50.11c0.5-6.48,0.2-12.64-2.91-18.38c-1.5-2.76-2.26-6.12-3.25-9.26 c-2.73-8.62-5.27-17.34-8.13-25.89c-2.53-7.56-4.84-15.35-9.69-21.35c-1.5-1.86-3.49-3.14-5.25-4.68 c-0.41,0.16-0.81,0.32-1.22,0.48c-0.79,3.86-1.56,7.74-2.39,11.59c-1.26,5.78-2.39,11.62-3.94,17.29 c-0.67,2.44-2.38,4.19-4.93,3.14c0.56,3.61,1.12,7.22,1.7,10.92c-1.47,0.51-2.75,0.95-4.03,1.4c3.9-0.27,7.93-1.79,11.96,2.3 c-2.47,0.25-4.27,0.43-6.16,0.62c1.64,7.68,3.3,14.94,4.74,22.27c7.54,38.34,11.69,77.34,15.77,116.38 c1.99,19.1,5.56,37.97,8.41,56.94c0.19-0.07,0.38-0.14,0.57-0.21C369.54,567.17,370.14,548.49,370.77,529.13z M286.03,196.32 c-0.63,55.79-1.25,111.58-1.87,166.21c5.35-10.16,11.16-21.19,17.11-32.48c-1.83-3.96-3.89-8.41-5.94-12.86 c0.17-0.14,0.34-0.29,0.51-0.43c2.5,3.72,5,7.45,7.49,11.15c4.35-5.84,8.75-11.75,13.15-17.65c0.36,0.4,0.71,0.8,1.07,1.2 c-0.44-0.04-0.88-0.09-1.48-0.14c-1.6-11.11-3.33-22.22-4.79-33.38c-3.29-25.21-6.34-50.48-9.73-75.67 c-1.22-9.03-3.15-17.92-4.76-26.87C292.03,176.7,286.54,187.58,286.03,196.32z M299.23,519.57c2.42-5.64,4.84-11.28,7.26-16.92 c0.08,0.05,0.16,0.1,0.24,0.15c-4.21,12.46-8.43,24.91-12.65,37.39c10.67,21.38,19.11,43.58,24.48,67.41 c0.28-0.06,0.55-0.12,0.83-0.18c-0.32-14.57-0.64-29.14-0.97-43.71c0.16-0.02,0.32-0.04,0.48-0.06c0.97,8.52,1.94,17.04,2.9,25.56 c0.2-0.04,0.41-0.07,0.61-0.11c0.15-0.51,0.3-1.03,0.46-1.54c0.2,0.06,0.4,0.13,0.6,0.19c0,6.64,0,13.27,0,19.91 c0.22,0.03,0.44,0.06,0.66,0.09c0.95-5.3,1.9-10.6,2.85-15.9c0.28,0.04,0.57,0.07,0.85,0.11c0,7.94,0,15.88,0,23.82 c0.26,0,0.51,0,0.77-0.01c0.2-4.67,0.59-9.34,0.56-14.01c-0.15-21.49-0.51-42.98-0.57-64.47c-0.01-3.84-0.66-7.04-2.55-10 c-6.62-10.41-13.17-20.89-19.84-31.25c-3.47-5.39-7.14-10.6-10.61-15.73c-6.03,17.12-9.07,35.05-11.82,53.04 c-2.79,18.28-4.64,36.67-3.09,55.56C283.82,564.55,290.4,541.91,299.23,519.57z M382.5,488.12c-1.47,3.63-3.8,7.11-4.26,10.92 c-1.17,9.89-1.57,19.93-2.19,29.91c-0.95,15.27-1.93,30.55-2.72,45.84c-0.55,10.55-0.99,21.14,1.98,31.45 c0.77-5.94,1.46-11.89,1.86-17.86c1.05-15.64,3.06-31.05,7.07-46.01c6.29-23.53,14.94-45.83,25.07-67.23 c2.83-5.98,3.68-11.86,4.13-18.42c1.53-22.4,0.69-44.74-0.33-67.85c-1.23,3.79-2.26,6.87-3.24,9.96 c-5.89,18.61-11.85,37.19-17.61,55.86C388.87,465.58,385.83,476.63,382.5,488.12z M172.2,410.23c1.28-2.29,2.56-4.57,4.25-7.58 c-1.79-17.04-3.66-34.77-5.52-52.5c-0.27-0.06-0.54-0.11-0.82-0.17c-14.47,23.1-22.28,49.86-28.75,76.83 c5.83,7.84,11.39,15.32,17.02,22.9C161.77,436.09,166.1,423,172.2,410.23z M329.3,375.92c-1.01-3.51-2.35-6.93-2.97-10.53 c-1.42-8.23-2.41-16.57-3.74-24.82c-0.96-5.92-2.19-11.78-3.32-17.75c-10.42,18.81-19.94,38.13-27.45,58.73 c9.15,6.01,14.18,16.66,20.02,25.63c6.32-6.52,12.66-13.05,19.29-19.89C330.69,384.22,330.1,380.33,329.3,375.92z M145.81,518.85 c0.35-1.24,0.82-2.45,1.01-3.72c0.76-5.08,1.27-10.23,2.17-15.28c2.75-15.36,5.65-30.69,8.58-46.54 c-5.16-8.12-10.53-16.59-16.13-25.41c-7,18.48-14.15,85.1-10.85,100.11c3.3-13.26,6.5-26.19,11.83-38.14 c-0.77,6.34-1.93,12.55-2.76,18.82c-1.68,12.69-3.23,25.38-8.24,36.99c-0.49,1.13-0.78,2.52-0.78,3.8 c-0.06,10.68-0.03,21.37-0.03,32.05c0.26,0.02,0.53,0.03,0.79,0.05c0.1-2.1,0.19-4.21,0.29-6.31c0.37-7.32-0.03-14.85,1.29-21.92 C135.26,541.11,140.48,530.19,145.81,518.85z M277.61,486.89c0-3.12,0-6.25,0-9.37c0.94,2.93,1.5,5.86,1.71,8.82 c0.2,2.98,0.04,5.99,0.04,8.99c5.32-26.55,15.05-50.65,26.03-74.01c-5.73-10.19-11.29-20.07-17.18-30.55 c-1.26,4.07-2.37,7.5-3.39,10.96c-2.21,7.46-4.25,14.96-8.3,21.44c-1.2,1.92-1.78,4.89-1.78,7.37c0.07,23.8,0.29,47.6,0.54,71.4 c0.07,6.4,0.36,12.8,0.59,19.19c0.03,0.72,0.37,1.43,0.57,2.14c0.34-0.03,0.69-0.05,1.03-0.08 C278.3,511.37,277.4,499.47,277.61,486.89z M216.48,412.64c-0.22-11.96-0.52-23.93,1.8-35.68c1.04-5.3,3.08-10.34,1.16-16.05 c-1.11-3.31-1.56-6.95-2.43-10.39c-0.92-3.64-2-7.22-3.01-10.82c-0.58,4.84-0.16,9.75-4.11,12.6 c-1.34,44.32-2.67,88.48-3.99,132.39c1.1,0,2.37,0,4.14,0c-1.45,7.63-2.96,14.47-4.03,21.42c-1.08,7.02-1.71,14.14-2.58,21.56 c0.86-0.06,1.57-0.11,1.8-0.12c0.8-2.49,1.45-4.52,2.09-6.49c1.62,0.48,2.46,0.72,3.12,0.92c-0.47-2.1-0.94-4.16-1.56-6.94 c1.62,0.6,2.33,0.86,3.41,1.26c-0.64-0.89-1.05-1.4-1.4-1.96c-0.41-0.66-0.76-1.36-1.42-2.55c1.47-1.75,2.9-3.46,4.33-5.17 c0.39,0.2,0.78,0.39,1.17,0.59c0.45-25.81,0.89-51.62,1.34-77.43c-0.24,0.01-0.49,0.03-0.73,0.04c-0.92-1.37-1.84-2.75-2.71-4.03 c0.53-2.08,0.96-3.78,1.39-5.45c0.92-0.57,1.7-1.05,2.52-1.56C216.69,416.88,216.6,415.08,216.48,412.64z M160.61,535.44 c5.25-10.16,10.49-20.32,16.5-31.96c0-3.22,0-8.4,0-14.01c-4.73-8.39-9.65-17.12-14.56-25.84c-0.26,0.1-0.53,0.2-0.79,0.29 c-2.85,19.49-5.37,39.05-8.64,58.44c-3.24,19.2-7.23,38.21-10.89,57.3c0.56-1.07,0.83-2.22,1.12-3.36 c2.16-8.6,4.27-17.18,8.67-24.68C155,546.56,157.59,541.15,160.61,535.44z M299.16,612.23c-0.16,3.74-0.32,7.48-0.47,11.22 c0.31,0.05,0.62,0.1,0.93,0.15c0.62-4.18,1.24-8.36,2-13.48c0,3.47,0,6.04,0,8.61c3.56-6.57,3.25-13.64,2.18-20.78 c-0.28-1.88-0.83-3.71-1.11-5.59c-0.27-1.85-0.36-3.73-0.53-5.6c0.11,0,0.21,0,0.32,0c2.48,7.8,4.96,15.6,7.5,23.59 c0.41-0.63,0.71-1.09,1.19-1.81c0,3.83,0,7.27,0,11.48c0.96-1.57,1.45-2.36,2.14-3.5c0.42,2.96,0.76,5.37,1.1,7.79 c0.27-3.89,0.52-7.76,0.21-11.56c-0.46-5.84-0.54-11.97-2.14-17.4c-3.61-12.31-7.94-24.32-12.2-36.33 c-1.84-5.2-4.24-10.1-6.43-15.23c-5.5,17.1-7.51,34.56-8.94,52.44c0.39-0.64,0.64-1.05,1.22-2.01c0,4.28,0,7.95,0,11.79 c0.56-0.06,1.07-0.11,1.62-0.17c0.37,2.36,0.72,4.64,1.12,7.26c0.66-9.13,1.3-17.91,1.94-26.69c0.66,2.8,0.61,5.56,0.67,8.32 c0.05,2.55,0.21,5.1,0.35,8.21c1.66-13.32,3.22-25.89,4.79-38.47c0.26,0.04,0.51,0.08,0.77,0.12 c-0.82,11.41-1.63,22.83-2.45,34.24c0.24,0.06,0.49,0.13,0.73,0.19c1.68-6.45,3.35-12.91,5.27-20.3 c-2.24,14.95-4.34,28.92-6.43,42.9c1.39-2.97,2.24-6.02,2.88-9.13c0.64-3.17,1.07-6.41,1.59-9.63c0.06,0.01,0.12,0.01,0.17,0.02 C299.15,605.75,299.15,608.64,299.16,612.23z M271.89,390.26c0.27,0.07,0.75,0.25,0.77,0.19c2.09-5.62,5.76-11.18,5.94-16.9 c1.04-33.28,1.27-66.59,1.75-99.9c0.02-1.68,0.1-3.47-0.33-5.02c-0.4-1.45-1.29-3.52-2.21-3.73c-1.17-0.26-3.27,0.66-3.76,1.82 c-1.53,3.66-3.53,7.67-3.51,11.53C270.74,315.4,271.3,352.55,271.89,390.26z M314.51,446.67c-1.61-2.43-3.22-4.86-4.96-7.48 c-3.81,9.67-7.63,19.33-11.5,29.15c12.35,11.27,21.29,25.93,30.06,41.86c0.25-1.66,0.44-2.33,0.44-3 c-0.05-10.12-0.09-20.24-0.21-30.36c-0.01-1.02-0.33-2.14-0.75-3.03C323.35,464.86,319.06,455.97,314.51,446.67z M79.64,527.48 c0.8,2.78,0.94,6.46,2.53,8.17c4.03,4.35,8.71,7.82,13.6,12.04c3.03-4.76,6.12-9.6,9.25-14.5c-0.37-2.11-0.63-4.14-1.09-6.09 c-2.68-11.31-9.28-19.12-16.41-26.36c-4.72-4.79-9.32-2.55-10.25,4.82c-0.21,1.65-0.35,3.41-0.13,5.04 C77.84,516.05,78.74,521.46,79.64,527.48z M380.84,592.72c-0.23,3.39-0.46,6.78-0.69,10.16c0.13,0.01,0.27,0.03,0.4,0.04 c0.73-3.59,1.47-7.18,2.2-10.76c0.21,0.03,0.43,0.06,0.64,0.09c0,5.77,0,11.53,0,17.3c0.36,0.08,0.72,0.16,1.08,0.24 c0.38-1.9,0.83-3.8,1.14-5.72c1.56-9.53,2.55-19.26,4.72-28.58c5.26-22.62,11.27-45,16.55-67.61c2.16-9.24,3.22-18.86,4.78-28.31 c-7.13,17.92-13.87,35.92-19.99,54.21C385.43,552.43,382.4,572.07,380.84,592.72z M163.49,461.71 c4.56,6.95,9.12,13.89,13.79,21.01c0-6.57,0-13.02,0-19.86c-2.45-3.42-5.06-7.08-7.68-10.75c0.14-0.16,0.28-0.32,0.41-0.47 c2.26,2.89,4.51,5.77,6.77,8.66c0.31-0.15,0.62-0.31,0.93-0.46c-0.45-17.57-0.89-35.13-1.34-52.7c-0.43-0.09-0.85-0.18-1.28-0.27 c-3.42,14.33-6.9,28.64-10.21,43.01C164.03,453.59,163.76,457.5,163.49,461.71z M176.8,542.26c0-7.05,0-14.1,0-20.91 c-12.48,14.81-16.42,35.16-22.03,54.46c-1.58,5.43-2.32,11.22-3.45,16.85c0.43,0.13,0.86,0.27,1.29,0.4 c2.06-7.45,4.12-14.89,6.27-22.65c1.64,3.42,3.05,6.38,4.48,9.36C167.81,567.4,172.23,555.12,176.8,542.26z M348.14,589.48 c0.26-1.53,0.5-3.06,0.77-4.59c0.27-1.49,0.58-2.97,0.88-4.46c-0.66,11.2-1.24,22.32-0.3,33.48c0.89-9.56,0.52-19.27,3.91-29.52 c-4.72-11.17-9.76-23.11-14.8-35.04c-0.19,0.05-0.39,0.1-0.58,0.15c0,10.15,0,20.3,0,30.81c0.44-1.49,0.79-2.67,1.28-4.34 c0.39,6.41,0.75,12.21,1.1,18c0.19-0.02,0.39-0.04,0.58-0.06c0.34-3.86,0.67-7.71,1.01-11.57c0.22-0.01,0.45-0.01,0.67-0.02 c0.51,9.77,1.02,19.55,1.51,28.99c0.02-0.06,0.2-0.51,0.34-0.87c0.18,0.49,0.37,1,0.66,1.81 C346.14,604.54,347.05,597.3,348.14,589.48z M330.17,426.42c0-5.18,0-10.37,0-14.14c-1.62-3.32-2.74-5.61-4.2-8.61 c-3.98,8.21-7.97,16.44-11.96,24.67c2.68-1.02,3.93-0.73,5.82,2.48c3.25,5.51,6.29,11.2,9.41,16.81c0.3-0.03,0.6-0.05,0.9-0.08 C330.15,440.73,330.15,433.91,330.17,426.42z M337.8,438.4c0,3.02-0.11,6.04,0.02,9.05c0.13,3.1,0.08,6.33,0.79,9.27 c2.1,8.71,4.54,17.29,6.83,25.93c1.69,6.38,3.34,12.78,5.01,19.17c0.36-0.11,0.72-0.23,1.08-0.34 c-4.47-30.04-8.93-60.07-13.4-90.11c-0.11,0.01-0.22,0.03-0.33,0.04C337.8,420.17,337.8,428.94,337.8,438.4z M344.32,525.9 c3.58,13.81,7.02,27.67,10.78,41.41c2.36,8.62,5.17,17.06,7.78,25.58c-0.3-25.37-6.82-48.26-17.63-69.46 c-0.26,0.07-0.52,0.14-0.79,0.22C344.4,524.22,344.33,524.78,344.32,525.9z M171.99,586.81c-0.07-1.69-0.15-3.38-0.22-5.07 c0.13,0,0.27,0.01,0.4,0.01c0.93,4.12,1.86,8.24,2.79,12.36c0.42-0.04,0.84-0.08,1.26-0.11c0.4-9.87,0.79-19.73,1.19-29.6 c-3.02,5.72-5.24,11.81-7.81,17.68c-2.14,4.88-2.65,9.79-1.29,15.49c0-2.97,0-5.47,0-7.98c0.1-0.05,0.2-0.1,0.29-0.15 c1.36,4.75,2.72,9.5,4.08,14.25c0.27-0.09,0.53-0.17,0.8-0.26C173,598.07,172.52,592.72,171.99,586.81z M397.22,595.18 c-2.99,5.01-5.54,20.91-4.27,27.82c2.08-8.27,4.04-16.06,6-23.85c0.34,0.08,0.67,0.17,1.01,0.25c-0.86,8.14-1.71,16.28-2.57,24.42 c0.18,0.04,0.35,0.09,0.53,0.13c2.49-13.93,4.97-27.85,7.49-41.95C402.69,586.37,400.08,590.56,397.22,595.18z M218.04,549.9 c-2.71,9.44-2.32,19.14-2.17,29.31c5.71-4.44,8.71-25.23,5.77-35.88C220.54,545.28,219.38,547.34,218.04,549.9z M106.85,549.76 c-1.04-2.38-2.07-4.75-3.16-7.26c-1.64,2.4-3.19,4.69-4.75,6.96c4.12,8.35,8.22,16.66,12.32,24.97 C110.56,566.18,109.96,557.92,106.85,549.76z M121.49,563.01c-0.16,12.8,1.24,25.39,3.33,37.93c0.37-21.54-0.88-42.96-2.17-64.37 c-0.39,0.02-0.77,0.03-1.16,0.05C121.49,545.17,121.49,553.73,121.49,563.01z M226.33,506.12c0.5,0.5,1,1,1.61,1.6 c-1.08,2.01-2.11,3.77-2.99,5.63c-0.84,1.76-1.53,3.62-2.26,5.39c2.21,1.52,3.83,2.64,6.17,4.26c-0.28,3.06-0.58,6.34-0.97,10.49 c1.74-1.46,3.39-2.84,5.42-4.54c-1.57-1.2-2.38-1.8-3.28-2.49c0.24-3.12,0.69-6.11,0.64-9.1c-0.05-2.96-0.19-6.11-1.08-8.79 c-0.85-2.56-2.73-4.62-4.41-7.32c-0.57,1.68-0.86,2.55-1.19,3.52C224.73,505.21,225.34,505.56,226.33,506.12z M220.64,490.6 c0.09,3.67,0.32,7.26,3.41,10.12c0.14-1.94,0.23-3.22,0.36-5.08c1.88-0.16,3.77-0.32,6.12-0.52c-1.37-2.4-2.68-4.7-3.73-6.53 c0.49-2.8,0.89-5.07,1.27-7.22c-4.04-3.43-4.76,2.29-6.84,2.6C221.01,486.22,220.83,488.11,220.64,490.6z M223.36,385.08 c-0.58-4.03-1.15-8.06-1.73-12.08c-0.26-0.01-0.52-0.02-0.78-0.03c-0.68,8.21-1.34,16.43-2.05,24.64 c-0.26,2.98,0.25,5.5,2.02,6.92c1.01-1.97,2.04-3.95,3.53-6.85C224.13,394.59,223.8,390.15,223.36,385.08z M221.25,473.95 c0,1.95,0,3.9,0,5.85c0.24,0.01,0.48,0.02,0.72,0.03c0-3.22,0-6.44,0-9.8c1.56,0.12,2.47,0.19,4.32,0.33 c-1.61-1.81-2.58-2.97-3.62-4.04c-1.05-1.08-2.16-2.07-3.71-3.54c0.72-1.85,1.43-3.65,2.11-5.41c1.67,0.69,2.54,1.05,3.46,1.44 c0.59-9.61-0.04-11.24-5.61-14.57c0,8.48,0,16.9,0,25.33c0.67,0.11,1.34,0.21,2.15,0.34C221.13,471.2,221.19,472.26,221.25,473.95 z M150.47,566.54c0.5,0.22,1.01,0.45,1.53,0.68c0.98-4.03,1.94-7.93,2.89-11.84c-8.35,10.69-11.3,22.95-7.75,35.72 c1.01-5.95,2.28-13.18,3.44-20.44C150.76,569.49,150.47,568.21,150.47,566.54z M207.68,566.27c1.52,0.91,3.04,1.82,4.33,2.6 c-0.29-5.17-0.29-5.17-6.09-9.75c0.53-1.86,1.1-3.86,1.67-5.87c0.58-0.4,1.16-0.81,1.74-1.21c1.18,2.28,2.36,4.56,3.78,7.31 c0.73-7.2,0.47-9.75-1.24-10.96c-2-1.42-4.09-1.42-6.16,0.07c0,6.14,0,12.14,0,18.16C206.25,566.49,206.73,566.38,207.68,566.27z M157.66,597.16c0.28-1.01,0.56-2.01,1.02-3.68c0.14,1.56,0.21,2.47,0.33,3.78c4.98-13.29,3.04-17.01-0.48-21.33 c-1.25,9.55-2.43,18.56-3.6,27.57c0.21,0.05,0.42,0.09,0.63,0.14C156.24,601.67,156.93,599.7,157.66,597.16z M338.02,519.28 c-1.32,7.51,1.96,13.08,5.49,18.98c-2.05-10.15-5.9-19.52-4.49-30.29c0.8,0.58,1.36,0.97,2,1.43c-1.17-4.45-2.25-8.59-3.34-12.74 c-0.18,0.05-0.36,0.09-0.53,0.14C337.45,504.09,337.76,511.36,338.02,519.28z M204.41,536.95c-0.13,2.73-0.26,5.46-0.39,8.19 c1.01-4.78,4.3-5.1,7.84-5.11c-0.99-1.64-1.62-2.67-2.12-3.5c0.93-1.96,1.75-3.67,2.79-5.88c-2.22-1.09-3.99-1.95-6.06-2.96 c0,2.93,0,5.34,0,7.82C205.91,535.75,205.2,536.05,204.41,536.95z M257.88,534.56c0.44,4.54,0.87,9.08,1.31,13.62 c0.19-0.01,0.38-0.02,0.58-0.03c0-10.77,0-21.54,0-32.4c-1.2,0-2.34,0-3.23,0C256.99,521.93,257.43,527.91,257.88,534.56z M106.25,599.65c-0.3-3.95-0.26-8-0.99-11.84c-0.8-4.26-2.29-8.32-3.48-12.47c-0.36,0.14-0.73,0.28-1.09,0.42 c0.02,11.31,4.7,21.36,6.59,32.2C106.97,605.39,106.67,602.83,106.25,599.65z M167.22,595.92c-0.35-1.5-0.7-3-1.16-4.94 c-3.15,5.85-2.73,16.35,0.82,22.52C167.75,607.58,168.22,602.1,167.22,595.92z M226.59,425.81c-0.19-1.29-0.45-2.57-0.56-3.87 c-0.41-5.17-2.51-8.88-6.48-11.35c-0.28,8.38,3.48,13.96,8.17,18.98C227.36,428.5,227,427.44,226.59,425.81z M140.41,548.06 c-0.6,2.4-1.33,4.77-1.76,7.21c-0.44,2.45-0.63,4.97-0.86,7.47c-0.22,2.34-0.37,4.7-0.54,7.05c0.28,0.05,0.57,0.1,0.85,0.14 c2.06-11.3,4.12-22.6,6.18-33.91c-0.08-0.03-0.15-0.06-0.23-0.09C142.91,539.81,141.78,543.69,140.41,548.06z M235.24,479.26 c-2.03,4.03-1.85,6.92,0.6,9.2c0.74-0.43,1.5-0.89,2.37-1.4c1.09,0.66,2.15,1.3,3.52,2.12c-1.26-3.57-2.39-6.79-3.52-9.99 C237.27,479.19,236.49,479.19,235.24,479.26z M211.65,577.06c-1.82-1.51-3.64-3.02-6.18-5.13c0.98,2.66,1.76,4.75,2.52,6.86 c1.61,4.41,3.21,8.82,5.11,14.03C212.72,587.17,212.39,582.28,211.65,577.06z M233.03,422.69c-4.65,1.14-5.49,4.04-2,13.18 c0.86-1.57,1.8-3.29,2.74-5.01c0.33,0.14,0.66,0.27,0.99,0.41C234.34,428.48,233.92,425.69,233.03,422.69z M235.32,585.62 c-1.88,7.91-3.77,15.83-5.65,23.74c0.36,0.15,0.72,0.3,1.08,0.45c0.62-1.32,1.2-2.67,1.88-3.94 C235.91,599.73,234.76,592.64,235.32,585.62z M240.75,444.82c0.39-1.47,0.78-2.94,1.17-4.41c0.47,0.57,0.94,1.14,1.4,1.71 c0.17-2.92,0.33-5.85,0.54-9.63c-2.29,3.19-4.16,5.79-6.25,8.7c0.7,2.85,1.42,5.73,2.13,8.61c0.19-0.07,0.38-0.13,0.57-0.2 C240.39,448.18,240.47,446.75,240.75,444.82z M229.67,554.11c2.24-0.69,4.48-1.39,7.06-2.19c0.14-0.63,0.42-1.85,0.81-3.58 c-1.4-0.94-2.79-1.87-4.6-3.09c-1.58,3.16-2.94,5.88-4.26,8.63C228.66,553.9,229.11,554.25,229.67,554.11z M229.01,566.24 c1.55,0.34,3.11,0.68,4.7,1.03c0.13,0.97,0.26,1.9,0.38,2.76c0.5-3.35,1.01-6.73,1.54-10.23c-1.51-0.13-2.85-0.25-4.67-0.41 C230.17,561.58,229.37,563.8,229.01,566.24z M91.13,563.73c0.67,0.97,1.48,1.84,1.99,2.92c1.25,2.62,2.36,5.33,3.52,8 c0.35-0.13,0.71-0.26,1.06-0.38c-0.95-5.04-1.89-10.08-3-15.98C93.09,560.53,92.13,561.87,91.13,563.73z M112.14,615.52 c0.05,0.1,0.08,0.22,0.15,0.31c0.05,0.07,0.2,0.15,0.21,0.14c0.19-0.34,0.56-0.72,0.53-1.05c-0.67-8.77-3.14-16.89-5.95-24.88 c-0.23,0.08-0.47,0.16-0.7,0.24C108.27,598.51,110.16,606.75,112.14,615.52z M242.02,503.8c-1.46-0.56-2.93-1.12-4.42-1.69 c-0.45,2.3-0.96,4.94-1.4,7.2c2.68,0.22,5,0.42,6.93,0.58C242.82,508.14,242.49,506.21,242.02,503.8z M253.74,497.02 c0.12-2.63,0.25-5.26,0.37-7.89c-0.46-0.09-0.92-0.17-1.38-0.26c-1.04,4.44-2.09,8.88-2.91,12.36c0.68,1.79,1.11,2.94,1.75,4.65 C252.52,502.11,253.07,499.86,253.74,497.02z M414.05,636.33c1.17-3.14,2.68-6.17,3.45-9.45c1.17-4.98,1.83-10.13,2.7-15.21 c-0.29-0.07-0.57-0.14-0.86-0.2C417.52,619.59,415.69,627.71,414.05,636.33z M355.94,593.23c-0.55-1.53-1.11-3.07-1.66-4.6 c-0.26,0.09-0.52,0.17-0.77,0.26c0.37,5.46,0.74,10.92,1.1,16.38c0.41,0.03,0.82,0.06,1.23,0.1c0.41-1.28,1.18-2.57,1.15-3.83 C356.93,598.92,356.45,596.34,355.94,593.23z M257.26,493.99c0.4,3.32,0.52,6.76,2.46,9.58c0-5.89,0-11.45,0-17.45 C256.63,488,257.37,490.86,257.26,493.99z M241.22,461.29c0.42,1.51,0.85,3.02,1.3,4.62c3.44-4.21,3.59-5.8,1.3-11.02 c-1.25,0.62-2.47,1.22-3.86,1.9C240.34,458.15,240.7,459.46,241.22,461.29z M214.07,518.23c-0.71,3.38-1.17,6.66,2.57,8.68 c0.43-3.35,0.84-6.57,1.32-10.34C216.38,517.03,215.28,517.35,214.07,518.23z M207.94,588.65c0.28,3.11,0.56,6.21,0.84,9.32 c0.15-0.01,0.3-0.02,0.45-0.04c0.12-1.17,0.23-2.33,0.45-4.46c0.79,2.17,1.23,3.38,1.67,4.59c0.21-0.09,0.42-0.18,0.63-0.26 c-1.51-5.9-3.03-11.8-4.54-17.7c-0.19,0.06-0.38,0.12-0.57,0.18C207.17,582.86,207.47,585.45,207.94,588.65z M226.91,544.53 c-0.42,4.01-0.84,8.01-1.34,12.75c2.42-2.73,3.55-8.49,2.71-15.35C227.79,542.62,227.31,543.31,226.91,544.53z M219.97,505.44 c-0.05-4.43-0.09-8.86-0.14-13.29c-0.39,0.01-0.78,0.02-1.16,0.04c0,5.83,0,11.66,0,17.49c0.31,0.02,0.61,0.05,0.92,0.07 C219.74,508.52,219.89,507.3,219.97,505.44z M240.55,609.71c-1.43,5.83-2.72,11.68-1.59,17.79c0.38,0.04,0.76,0.07,1.13,0.11 C240.36,621.61,240.62,615.61,240.55,609.71z M303.56,627.67c0.17-0.19,0.35-0.37,0.5-0.57c0.06-0.08,0.05-0.25,0.11-0.33 c0.05-0.06,0.16-0.04,0.45-0.08c0,1.28,0,2.53,0,3.78c0.13,0.02,0.27,0.03,0.4,0.05c0.35-2.52,0.7-5.03,1.19-8.54 c0.39,4.04,0.68,7.02,0.96,10c0.19-0.03,0.37-0.06,0.56-0.09c-0.47-4.7-0.94-9.41-1.41-14.11c-0.3-0.04-0.6-0.07-0.9-0.11 C304.78,620.86,304.14,624.06,303.56,627.67z M251.97,524.87c0.31-1.7,1.08-3.55,0.77-5.07c-0.25-1.22-1.81-2.05-3.11-3.38 c0,3.31,0,5.68,0,8.28C250.34,524.79,250.9,524.85,251.97,524.87z M255.27,553.66c-0.41-4.59-0.82-9.18-1.24-13.78 c-0.48,0.07-0.97,0.14-1.45,0.21c0.19,2.24,0.38,4.47,0.64,7.43c0.44-1.15,0.58-1.54,0.9-2.37c0,4,0,7.5,0,10.99 c0.22,0.02,0.43,0.03,0.65,0.05C254.92,555.53,255.06,554.85,255.27,553.66z M85.67,548.61c0.73,2.13,1.47,4.26,2.27,6.58 c1.03-0.98,2.03-1.93,3.06-2.91c-1.97-2.09-3.83-4.05-6.19-6.56C85.18,547.06,85.34,547.6,85.67,548.61z M248.21,609.2 c-0.04-0.58-0.08-1.17-0.06-0.92c0,4.86,0,10.54,0,16.21c0.42-0.02,0.84-0.05,1.26-0.07C249.02,619.53,248.62,614.65,248.21,609.2 z M221.82,531.85c0.1,0.03,0.19,0.09,0.29,0.08c0.06-0.01,0.18-0.14,0.17-0.16c-0.63-1.86-1.27-3.71-1.91-5.56 c-0.3,0.03-0.6,0.06-0.9,0.1c0,3.11,0,6.22,0,9.32c0.16,0,0.33-0.01,0.49-0.01C220.45,534.33,220.93,533.05,221.82,531.85z M234.66,463.9c-0.74-0.72-1.47-1.43-2.72-2.65c-0.28,2.47-0.48,4.26-0.69,6.06c1.21,0.25,2.2,0.45,3.66,0.75 C234.91,466.65,234.91,465.36,234.66,463.9z M286.04,611.2c-0.35,5.67-0.7,11.33-1.05,17c0.31,0.02,0.62,0.04,0.93,0.06 c0.33-6.46,0.66-12.91,0.99-19.37c-0.15-0.03-0.29-0.06-0.44-0.09C286.33,609.41,286.2,610.02,286.04,611.2z M220.1,577.53 c-0.28,0.73-0.55,1.45-0.86,2.27c1.23,0,2.34,0,3.58,0c0-2.57,0-4.91,0-8.22C221.74,574.04,221.06,575.58,220.1,577.53z M222.59,430.77c-0.96-0.51-1.92-1.01-3.07-1.62c0,2.33,0,4.3,0,6c1.34-0.98,2.68-1.96,4.21-3.09 C223.45,431.7,223.21,431.38,222.59,430.77z M338.8,589.34c0-1.26,0-2.52,0-3.78c-0.18,0-0.36,0.01-0.54,0.01 c0,5.97,0,11.95,0,17.92c0.18,0,0.36,0.01,0.54,0.01C338.8,599,338.8,594.5,338.8,589.34z M235.54,510.09c0-1.13,0-2.26,0-3.38 c-0.31-0.01-0.63-0.02-0.94-0.03c0,2.95,0,5.9,0,8.85c0.06,0.01,0.13,0.02,0.19,0.04C235.04,513.93,235.29,512.31,235.54,510.09z M115.92,600.98c0.32,1.21,0.65,2.42,0.97,3.63c0.22-0.08,0.44-0.17,0.66-0.25c-1.19-4.63-2.38-9.27-3.57-13.9 c-0.21,0.08-0.43,0.16-0.64,0.23C114.15,593.94,114.97,597.19,115.92,600.98z"/> <path d="M292.69,134.47c-1.54-5.82-0.57-10.99,1.29-16.04c0.28,3.28,0.55,6.49,0.82,9.71c0.22-0.02,0.44-0.04,0.67-0.06 c0.66-4.95,1.32-9.91,1.98-14.86c0.35,0.04,0.7,0.08,1.06,0.12c0.31,4.76-1.2,9.82,0.77,14.31c0.32-0.01,0.63-0.02,0.95-0.04 c1.11-9.32,2.23-18.64,3.34-27.96c0.27-0.01,0.55-0.03,0.82-0.04c0.41,9.74,0.83,19.48,1.26,29.67c2.71-1.98,2.21-5.26,2.47-7.96 c0.28-2.92,0.06-5.91,0.06-9.77c3.11,6.56,2.35,12.89,2.57,19.88c2.44-4.01,2.4-7.77,1.58-12.22c5.21,10.56,1.72,20.09-9.37,27.01 c-2.41,6.86-4.99,13.62-7.11,20.59c-0.89,2.91-2.29,3.49-5.49,3.65c3.58-9.16,6.88-17.61,9.84-25.19 C297.71,141.75,295.23,138.25,292.69,134.47z"/> <path d="M75.53,495.62c-0.95,1.85-1.94,3.45-3.03,5.27c-2.25-5.66-4.28-11.6-6.57-17.4c-4.14-10.48-8.44-20.88-12.67-31.32 c-0.2-0.49-0.4-0.98-0.4-1.62C61.99,464.32,68.48,480.04,75.53,495.62z"/> <path d="M47.88,546.7c-4.56,1.17-9.14,2.35-13.72,3.54c4.16-2.94,8.67-4.14,13.57-3.72C47.84,546.77,47.86,546.72,47.88,546.7z"/> <path d="M109.44,520.58c0.37,0.65,0.53,1.26,0.72,2.1c-0.55-0.3-1.34-0.7-1.69-1.41c-1.93-3.9-3.75-7.87-5.08-12.17 C105.34,512.91,107.29,516.72,109.44,520.58z"/> <path d="M187.58,567.37c0.73,4.71,1.43,9.15,2.13,13.59c-0.35,0.08-0.71,0.16-1.06,0.24c-0.91-5.55-1.81-11.11-2.72-16.66 c0.28-0.08,0.55-0.16,0.83-0.24C187.02,565.23,187.29,566.17,187.58,567.37z"/> </g> </g> </g>
</svg>