<?xml version="1.0" standalone="no"?>
<!DOCTYPE svg PUBLIC "-//W3C//DTD SVG 20010904//EN"
 "http://www.w3.org/TR/2001/REC-SVG-20010904/DTD/svg10.dtd">
<svg version="1.0" xmlns="http://www.w3.org/2000/svg"
 width="700.000000pt" height="700.000000pt" viewBox="0 0 700.000000 700.000000"
 preserveAspectRatio="xMidYMid meet">
<metadata>
Created by potrace 1.14, written by Peter Selinger 2001-2017
</metadata>
<g transform="translate(0.000000,700.000000) scale(0.100000,-0.100000)"
fill="#000000" stroke="none">
<path d="M1788 6396 c-76 -50 -179 -337 -204 -566 -2 -25 -7 -56 -10 -70 -3
-14 -7 -131 -9 -260 -3 -297 23 -524 90 -785 108 -416 249 -651 523 -871 178
-142 347 -213 524 -219 93 -3 123 0 213 27 117 35 272 155 354 275 12 19 27
31 31 26 28 -30 218 -430 279 -588 18 -44 36 -89 41 -100 13 -29 95 -277 120
-361 29 -104 81 -146 159 -129 44 10 76 52 116 155 51 129 181 384 258 503
l63 98 47 -74 c132 -209 312 -318 522 -318 278 1 587 218 720 506 52 114 67
155 101 280 96 347 103 779 18 1071 -45 156 -76 197 -152 198 -41 1 -58 -6
-132 -55 -161 -108 -259 -147 -556 -228 -314 -85 -442 -135 -581 -228 -124
-82 -241 -216 -291 -334 -88 -205 -40 -435 125 -607 7 -7 13 -16 13 -18 0 -3
-26 -44 -58 -92 -67 -99 -159 -255 -193 -324 -13 -27 -26 -48 -29 -48 -3 0
-12 17 -19 38 -18 49 -87 225 -105 265 -8 18 -27 61 -42 97 -38 87 -174 358
-224 446 l-40 72 82 48 c74 44 182 125 231 176 34 34 117 150 138 190 125 245
90 544 -99 843 -41 64 -160 211 -197 243 -181 155 -346 225 -795 338 -328 83
-493 135 -617 195 -74 35 -211 122 -283 179 -38 30 -93 33 -132 6z m174 -334
c183 -111 356 -173 768 -276 394 -99 510 -141 647 -234 164 -111 330 -369 358
-557 24 -156 -19 -297 -127 -416 -66 -73 -261 -202 -277 -183 -4 5 -47 67 -95
138 -224 331 -392 532 -701 840 -167 166 -217 201 -271 190 -54 -11 -103 -71
-98 -121 1 -13 2 -30 3 -38 0 -8 38 -50 82 -93 272 -259 477 -487 655 -732 62
-85 167 -238 213 -313 l43 -67 -55 -83 c-195 -292 -437 -329 -740 -113 -64 46
-174 149 -235 222 -99 116 -202 352 -257 589 -26 108 -51 258 -61 360 -2 28
-6 70 -9 95 -13 122 -5 362 16 520 14 102 64 310 75 310 2 0 32 -17 66 -38z
m3576 -1234 c26 -143 33 -330 18 -492 -24 -276 -112 -559 -217 -702 -69 -94
-213 -200 -319 -234 -25 -8 -81 -15 -125 -15 -67 0 -88 5 -130 27 -62 32 -126
94 -173 167 -33 52 -82 153 -82 170 0 10 144 158 200 206 77 66 187 142 269
185 69 37 101 76 101 125 0 70 -76 134 -143 119 -39 -8 -99 -41 -217 -119
-110 -74 -169 -123 -300 -253 l-94 -94 -28 33 c-104 124 -83 301 52 438 123
125 268 195 575 276 200 53 392 120 490 170 55 29 103 53 106 54 3 0 11 -27
17 -61z"/>
<path d="M681 3007 c-30 -6 -48 -18 -68 -43 l-27 -36 0 -936 c-1 -854 0 -939
16 -973 31 -71 16 -69 599 -69 l521 0 39 39 c34 34 39 45 39 85 0 25 4 46 8
46 9 0 253 -82 532 -180 489 -172 855 -289 952 -305 18 -3 40 -8 48 -10 8 -2
29 -7 45 -10 17 -3 44 -8 60 -11 99 -19 296 -24 406 -10 146 19 316 70 529
159 126 53 596 285 850 419 279 148 659 345 899 465 247 125 281 150 281 213
0 25 -8 56 -20 75 -22 35 -177 186 -254 248 -144 113 -281 137 -483 82 -101
-27 -661 -184 -908 -254 -77 -22 -142 -38 -145 -36 -3 2 -7 21 -8 42 -11 193
-131 350 -296 388 -36 8 -190 12 -521 11 l-470 -1 -60 57 c-163 155 -343 245
-562 283 -129 22 -142 23 -530 24 l-353 1 0 69 c0 88 -14 126 -55 151 -33 20
-48 21 -529 23 -272 1 -513 -2 -535 -6z m875 -1024 l-1 -788 -362 -2 -363 -1
0 789 0 789 363 0 364 0 -1 -787z m1039 533 c17 -3 55 -11 85 -17 141 -28 278
-105 414 -231 43 -40 88 -80 100 -88 18 -12 99 -15 538 -15 507 -1 518 -1 545
-21 49 -37 68 -81 68 -159 0 -84 -25 -139 -74 -166 -29 -16 -85 -17 -714 -17
-435 0 -691 -4 -708 -10 -62 -24 -92 -101 -64 -163 34 -75 2 -72 780 -72 606
0 697 2 746 16 50 15 102 46 158 94 11 9 26 18 34 19 13 2 234 63 597 166 96
27 182 51 190 53 8 2 58 16 110 31 148 41 148 41 283 77 70 19 143 33 162 32
50 -4 112 -38 180 -98 l59 -54 -29 -15 c-249 -127 -556 -286 -730 -378 -814
-432 -1138 -581 -1375 -634 -177 -40 -361 -40 -560 -1 -14 3 -35 7 -47 10 -83
15 -537 154 -608 185 -11 4 -56 21 -100 35 -44 15 -170 59 -280 97 -266 92
-516 179 -537 185 -17 5 -18 41 -18 580 l0 575 383 -5 c210 -2 396 -7 412 -11z"/>
</g>
</svg>
